<?xml version="1.0" standalone="no"?>
<!DOCTYPE svg PUBLIC "-//W3C//DTD SVG 20010904//EN"
 "http://www.w3.org/TR/2001/REC-SVG-20010904/DTD/svg10.dtd">
<svg version="1.0" xmlns="http://www.w3.org/2000/svg"
 width="263.000000pt" height="263.000000pt" viewBox="0 0 263.000000 263.000000"
 preserveAspectRatio="xMidYMid meet">
<metadata>
Created by potrace 1.11, written by Peter Selinger 2001-2013
</metadata>
<g transform="translate(0.000000,263.000000) scale(0.100000,-0.100000)"
fill="#000000" stroke="none">
<path d="M1256 2543 c-1 -2 -36 -5 -77 -7 -41 -2 -75 -5 -76 -6 -5 -4 -94 -22
-110 -22 -5 0 -16 -4 -26 -10 -10 -5 -29 -12 -42 -14 -12 -2 -38 -10 -56 -18
-19 -8 -38 -15 -44 -16 -5 -1 -17 -8 -25 -15 -8 -7 -18 -14 -22 -14 -11 -2
-81 -34 -93 -44 -41 -30 -116 -77 -125 -77 -6 0 -8 -4 -5 -10 3 -5 1 -10 -6
-10 -20 0 -202 -190 -244 -255 -21 -33 -41 -62 -44 -65 -8 -7 -92 -178 -95
-193 -2 -7 -6 -19 -9 -27 -13 -34 -37 -112 -42 -137 -3 -16 -7 -39 -10 -53
-25 -108 -25 -339 0 -457 3 -13 7 -34 10 -46 20 -97 104 -295 154 -366 12 -16
21 -34 21 -39 0 -6 3 -12 8 -14 4 -1 19 -19 33 -38 28 -37 125 -145 147 -164
7 -6 21 -18 30 -26 38 -34 160 -120 169 -120 6 0 16 -6 22 -14 7 -8 25 -18 41
-21 16 -3 34 -13 40 -21 7 -7 16 -11 21 -8 5 3 9 0 9 -5 0 -6 8 -11 18 -11 10
0 22 -4 27 -8 11 -9 134 -49 175 -56 14 -3 25 -5 25 -6 0 -12 326 -32 348 -22
7 4 70 10 140 15 9 1 17 6 17 11 0 5 3 7 6 3 3 -3 29 2 57 10 29 9 58 16 65
16 6 0 12 5 12 10 0 6 3 8 6 4 6 -6 66 18 154 62 47 23 95 53 195 121 13 8 37
30 56 48 18 17 36 32 41 32 4 0 8 8 8 17 0 9 3 13 6 10 4 -4 15 3 26 16 10 12
34 40 53 62 52 59 121 168 166 263 21 46 39 87 39 93 0 5 4 17 10 27 8 14 33
101 32 109 -1 2 4 17 9 35 15 53 22 135 22 263 0 110 -4 154 -18 225 -3 14 -7
36 -10 49 -4 24 -31 111 -42 141 -4 8 -5 18 -5 23 1 4 -3 7 -8 7 -5 0 -9 3 -8
8 4 10 -63 146 -76 154 -6 5 -7 8 -1 8 7 0 7 3 0 8 -5 4 -27 33 -48 64 -21 31
-48 68 -60 81 -87 95 -107 116 -107 113 0 -3 -15 10 -33 27 -49 47 -87 78 -87
71 0 -3 -7 1 -15 8 -8 7 -21 18 -29 25 -22 19 -167 93 -181 93 -8 0 -15 3 -17
8 -4 10 -143 55 -190 62 -4 1 -22 6 -40 11 -50 14 -282 32 -292 22z m180 -965
c76 -35 153 -127 170 -201 18 -77 -3 -194 -44 -239 -8 -10 -12 -18 -8 -18 4 0
-9 -16 -29 -35 -35 -32 -112 -76 -145 -82 -190 -35 -363 95 -374 282 -2 28 1
64 6 80 5 17 11 38 13 47 2 10 17 37 34 61 80 118 250 165 377 105z"/>
</g>
</svg>
